{
  "accessors": [
    {
      "bufferView": 2,
      "componentType": 5126,
      "count": 9894,
      "max": [
        33.33026123046875,
        169.796875,
        82.70709991455078
      ],
      "min": [
        -33.328243255615234,
        -4.028778076171875,
        -181.61073303222656
      ],
      "type": "VEC3"
    },
    {
      "bufferView": 2,
      "byteOffset": 118728,
      "componentType": 5126,
      "count": 9894,
      "max": [
        0.9999642372131348,
        0.9999306797981262,
        0.9988781809806824
      ],
      "min": [
        -0.9999643564224243,
        -0.9999420046806335,
        -0.9997972846031189
      ],
      "type": "VEC3"
    },
    {
      "bufferView": 1,
      "componentType": 5126,
      "count": 9894,
      "max": [
        0.9927099943161011,
        0.9915900230407715
      ],
      "min": [
        0.009390000253915787,
        0.009750008583068848
      ],
      "type": "VEC2"
    },
    {
      "bufferView": 1,
      "byteOffset": 79152,
      "componentType": 5126,
      "count": 9894,
      "max": [
        0.9927099943161011,
        0.9915900230407715
      ],
      "min": [
        0.009390000253915787,
        0.009750008583068848
      ],
      "type": "VEC2"
    },
    {
      "bufferView": 1,
      "byteOffset": 158304,
      "componentType": 5126,
      "count": 9894,
      "max": [
        0.9927099943161011,
        0.9915900230407715
      ],
      "min": [
        0.009390000253915787,
        0.009750008583068848
      ],
      "type": "VEC2"
    },
    {
      "bufferView": 0,
      "componentType": 5125,
      "count": 52476,
      "type": "SCALAR"
    }
  ],
  "asset": {
    "extras": {
      "author": "rinaskylark (https://sketchfab.com/rinaskylark)",
      "license": "CC-BY-4.0 (http://creativecommons.org/licenses/by/4.0/)",
      "source": "https://sketchfab.com/3d-models/kangaroo-31236db25afe445e8444b0ce8e22d53d",
      "title": "Kangaroo"
    },
    "generator": "Sketchfab-16.10.0",
    "version": "2.0"
  },
  "bufferViews": [
    {
      "buffer": 0,
      "byteLength": 209904,
      "name": "floatBufferViews",
      "target": 34963
    },
    {
      "buffer": 0,
      "byteLength": 237456,
      "byteOffset": 209904,
      "byteStride": 8,
      "name": "floatBufferViews",
      "target": 34962
    },
    {
      "buffer": 0,
      "byteLength": 237456,
      "byteOffset": 447360,
      "byteStride": 12,
      "name": "floatBufferViews",
      "target": 34962
    }
  ],
  "buffers": [
    {
      "byteLength": 684816,
      "uri": "scene.bin"
    }
  ],
  "extensionsRequired": [
    "KHR_materials_pbrSpecularGlossiness"
  ],
  "extensionsUsed": [
    "KHR_materials_pbrSpecularGlossiness"
  ],
  "images": [
    {
      "uri": "textures/material_diffuse.png"
    },
    {
      "uri": "textures/material_specularGlossiness.png"
    }
  ],
  "materials": [
    {
      "doubleSided": true,
      "extensions": {
        "KHR_materials_pbrSpecularGlossiness": {
          "diffuseFactor": [
            1.0,
            1.0,
            1.0,
            1.0
          ],
          "diffuseTexture": {
            "index": 0
          },
          "glossinessFactor": 1.0,
          "specularFactor": [
            1.0,
            1.0,
            1.0
          ],
          "specularGlossinessTexture": {
            "index": 1
          }
        }
      },
      "name": "material"
    }
  ],
  "meshes": [
    {
      "name": "Object_0",
      "primitives": [
        {
          "attributes": {
            "NORMAL": 1,
            "POSITION": 0,
            "TEXCOORD_0": 2,
            "TEXCOORD_1": 3,
            "TEXCOORD_2": 4
          },
          "indices": 5,
          "material": 0,
          "mode": 4
        }
      ]
    }
  ],
  "nodes": [
    {
      "children": [
        1
      ],
      "matrix": [
        1.0,
        0.0,
        0.0,
        0.0,
        0.0,
        2.220446049250313e-16,
        -1.0,
        0.0,
        0.0,
        1.0,
        2.220446049250313e-16,
        0.0,
        0.0,
        0.0,
        0.0,
        1.0
      ],
      "name": "Sketchfab_model"
    },
    {
      "children": [
        2
      ],
      "name": "root"
    },
    {
      "children": [
        3
      ],
      "matrix": [
        1.0,
        0.0,
        0.0,
        0.0,
        0.0,
        2.220446049250313e-16,
        1.0,
        0.0,
        0.0,
        -1.0,
        2.220446049250313e-16,
        0.0,
        0.0,
        0.0,
        0.0,
        1.0
      ],
      "name": "GLTF_SceneRootNode"
    },
    {
      "children": [
        4
      ],
      "name": "root_1"
    },
    {
      "children": [
        5
      ],
      "matrix": [
        0.0019138623799818347,
        0.0,
        0.0022389697613745575,
        0.0,
        0.0,
        0.002945480402559042,
        0.0,
        0.0,
        -0.0022389697613745575,
        0.0,
        0.0019138623799818347,
        0.0,
        0.2439347356557846,
        -0.2890807092189789,
        0.48391222953796387,
        1.0
      ],
      "name": "node_id31_0"
    },
    {
      "mesh": 0,
      "name": "Object_5"
    }
  ],
  "samplers": [
    {
      "magFilter": 9729,
      "minFilter": 9987,
      "wrapS": 10497,
      "wrapT": 10497
    }
  ],
  "scene": 0,
  "scenes": [
    {
      "name": "Sketchfab_Scene",
      "nodes": [
        0
      ]
    }
  ],
  "textures": [
    {
      "sampler": 0,
      "source": 0
    },
    {
      "sampler": 0,
      "source": 1
    }
  ]
}
