{
  "accessors": [
    {
      "bufferView": 2,
      "componentType": 5126,
      "count": 65532,
      "max": [
        0.30393800139427185,
        -1.5303679704666138,
        5.371318817138672
      ],
      "min": [
        -1.7324860095977783,
        -6.2316460609436035,
        1.6657459735870361
      ],
      "type": "VEC3"
    },
    {
      "bufferView": 2,
      "byteOffset": 786384,
      "componentType": 5126,
      "count": 65532,
      "max": [
        0.9999760389328003,
        0.9999772906303406,
        0.9998766183853149
      ],
      "min": [
        -0.9999660849571228,
        -0.9999991059303284,
        -0.9999788403511047
      ],
      "type": "VEC3"
    },
    {
      "bufferView": 3,
      "componentType": 5126,
      "count": 65532,
      "max": [
        0.7529411911964417,
        0.7529411911964417,
        0.7529411911964417,
        1.0
      ],
      "min": [
        0.7529411911964417,
        0.7529411911964417,
        0.7529411911964417,
        1.0
      ],
      "type": "VEC4"
    },
    {
      "bufferView": 1,
      "componentType": 5126,
      "count": 65532,
      "max": [
        0.798022985458374,
        0.7051609754562378
      ],
      "min": [
        0.25450199842453003,
        0.15544599294662476
      ],
      "type": "VEC2"
    },
    {
      "bufferView": 0,
      "componentType": 5125,
      "count": 188922,
      "type": "SCALAR"
    },
    {
      "bufferView": 2,
      "byteOffset": 1572768,
      "componentType": 5126,
      "count": 65534,
      "max": [
        0.05780699849128723,
        -1.55377197265625,
        7.945323944091797
      ],
      "min": [
        -1.8683539628982544,
        -6.695695877075195,
        1.9070899486541748
      ],
      "type": "VEC3"
    },
    {
      "bufferView": 2,
      "byteOffset": 2359176,
      "componentType": 5126,
      "count": 65534,
      "max": [
        0.9999966621398926,
        0.9998784065246582,
        0.9998505115509033
      ],
      "min": [
        -0.9999858736991882,
        -0.9999362230300903,
        -0.9998865723609924
      ],
      "type": "VEC3"
    },
    {
      "bufferView": 3,
      "byteOffset": 1048512,
      "componentType": 5126,
      "count": 65534,
      "max": [
        0.7529411911964417,
        0.7529411911964417,
        0.7529411911964417,
        1.0
      ],
      "min": [
        0.7529411911964417,
        0.7529411911964417,
        0.7529411911964417,
        1.0
      ],
      "type": "VEC4"
    },
    {
      "bufferView": 1,
      "byteOffset": 524256,
      "componentType": 5126,
      "count": 65534,
      "max": [
        0.9039000272750854,
        0.8581669926643372
      ],
      "min": [
        0.03456899896264076,
        0.11366499960422516
      ],
      "type": "VEC2"
    },
    {
      "bufferView": 0,
      "byteOffset": 755688,
      "componentType": 5125,
      "count": 134889,
      "type": "SCALAR"
    },
    {
      "bufferView": 2,
      "byteOffset": 3145584,
      "componentType": 5126,
      "count": 65533,
      "max": [
        0.3443720042705536,
        -1.8826650381088257,
        7.991188049316406
      ],
      "min": [
        -1.6476349830627441,
        -4.444995880126953,
        4.531389236450195
      ],
      "type": "VEC3"
    },
    {
      "bufferView": 2,
      "byteOffset": 3931980,
      "componentType": 5126,
      "count": 65533,
      "max": [
        0.9998149871826172,
        0.9999767541885376,
        0.9999884366989136
      ],
      "min": [
        -0.9999780058860779,
        -0.999845027923584,
        -0.999846875667572
      ],
      "type": "VEC3"
    },
    {
      "bufferView": 3,
      "byteOffset": 2097056,
      "componentType": 5126,
      "count": 65533,
      "max": [
        0.7529411911964417,
        0.7529411911964417,
        0.7529411911964417,
        1.0
      ],
      "min": [
        0.7529411911964417,
        0.7529411911964417,
        0.7529411911964417,
        1.0
      ],
      "type": "VEC4"
    },
    {
      "bufferView": 1,
      "byteOffset": 1048528,
      "componentType": 5126,
      "count": 65533,
      "max": [
        0.917792022228241,
        0.8761370182037354
      ],
      "min": [
        0.02051199972629547,
        0.08930400013923645
      ],
      "type": "VEC2"
    },
    {
      "bufferView": 0,
      "byteOffset": 1295244,
      "componentType": 5125,
      "count": 146466,
      "type": "SCALAR"
    },
    {
      "bufferView": 2,
      "byteOffset": 4718376,
      "componentType": 5126,
      "count": 65534,
      "max": [
        1.536553978919983,
        -1.9161460399627686,
        8.00571346282959
      ],
      "min": [
        -0.8446009755134583,
        -4.004672050476074,
        4.91408109664917
      ],
      "type": "VEC3"
    },
    {
      "bufferView": 2,
      "byteOffset": 5504784,
      "componentType": 5126,
      "count": 65534,
      "max": [
        0.999947190284729,
        0.9999781250953674,
        0.9999880194664001
      ],
      "min": [
        -0.9998080134391785,
        -0.9999988675117493,
        -0.9999857544898987
      ],
      "type": "VEC3"
    },
    {
      "bufferView": 3,
      "byteOffset": 3145584,
      "componentType": 5126,
      "count": 65534,
      "max": [
        0.7529411911964417,
        0.7529411911964417,
        0.7529411911964417,
        1.0
      ],
      "min": [
        0.7529411911964417,
        0.7529411911964417,
        0.7529411911964417,
        1.0
      ],
      "type": "VEC4"
    },
    {
      "bufferView": 1,
      "byteOffset": 1572792,
      "componentType": 5126,
      "count": 65534,
      "max": [
        0.9800009727478027,
        0.8680999875068665
      ],
      "min": [
        0.02001200057566166,
        0.08929000049829483
      ],
      "type": "VEC2"
    },
    {
      "bufferView": 0,
      "byteOffset": 1881108,
      "componentType": 5125,
      "count": 140634,
      "type": "SCALAR"
    },
    {
      "bufferView": 2,
      "byteOffset": 6291192,
      "componentType": 5126,
      "count": 65534,
      "max": [
        1.7123010158538818,
        -1.8824609518051147,
        8.001936912536621
      ],
      "min": [
        -0.01676199957728386,
        -4.593300819396973,
        3.938462972640991
      ],
      "type": "VEC3"
    },
    {
      "bufferView": 2,
      "byteOffset": 7077600,
      "componentType": 5126,
      "count": 65534,
      "max": [
        0.9998568892478943,
        0.9998502731323242,
        0.9999497532844543
      ],
      "min": [
        -0.9999148845672607,
        -0.9999557733535767,
        -0.9998468160629272
      ],
      "type": "VEC3"
    },
    {
      "bufferView": 3,
      "byteOffset": 4194128,
      "componentType": 5126,
      "count": 65534,
      "max": [
        0.7529411911964417,
        0.7529411911964417,
        0.7529411911964417,
        1.0
      ],
      "min": [
        0.7529411911964417,
        0.7529411911964417,
        0.7529411911964417,
        1.0
      ],
      "type": "VEC4"
    },
    {
      "bufferView": 1,
      "byteOffset": 2097064,
      "componentType": 5126,
      "count": 65534,
      "max": [
        0.917792022228241,
        0.8761370182037354
      ],
      "min": [
        0.02051199972629547,
        0.08930400013923645
      ],
      "type": "VEC2"
    },
    {
      "bufferView": 0,
      "byteOffset": 2443644,
      "componentType": 5125,
      "count": 151662,
      "type": "SCALAR"
    },
    {
      "bufferView": 2,
      "byteOffset": 7864008,
      "componentType": 5126,
      "count": 65533,
      "max": [
        1.7212380170822144,
        -1.8939319849014282,
        7.895461082458496
      ],
      "min": [
        -0.054246000945568085,
        -5.308481216430664,
        1.8704819679260254
      ],
      "type": "VEC3"
    },
    {
      "bufferView": 2,
      "byteOffset": 8650404,
      "componentType": 5126,
      "count": 65533,
      "max": [
        0.9999440312385559,
        0.9999964237213135,
        0.9998810887336731
      ],
      "min": [
        -0.9999851584434509,
        -0.9999991059303284,
        -0.9999783039093018
      ],
      "type": "VEC3"
    },
    {
      "bufferView": 3,
      "byteOffset": 5242672,
      "componentType": 5126,
      "count": 65533,
      "max": [
        0.7529411911964417,
        0.7529411911964417,
        0.7529411911964417,
        1.0
      ],
      "min": [
        0.7529411911964417,
        0.7529411911964417,
        0.7529411911964417,
        1.0
      ],
      "type": "VEC4"
    },
    {
      "bufferView": 1,
      "byteOffset": 2621336,
      "componentType": 5126,
      "count": 65533,
      "max": [
        0.8960530161857605,
        0.8680999875068665
      ],
      "min": [
        0.02001200057566166,
        0.08929000049829483
      ],
      "type": "VEC2"
    },
    {
      "bufferView": 0,
      "byteOffset": 3050292,
      "componentType": 5125,
      "count": 148347,
      "type": "SCALAR"
    },
    {
      "bufferView": 2,
      "byteOffset": 9436800,
      "componentType": 5126,
      "count": 65534,
      "max": [
        1.8522499799728394,
        -1.5335090160369873,
        7.996058940887451
      ],
      "min": [
        -0.04206499829888344,
        -6.491907119750977,
        1.6657459735870361
      ],
      "type": "VEC3"
    },
    {
      "bufferView": 2,
      "byteOffset": 10223208,
      "componentType": 5126,
      "count": 65534,
      "max": [
        0.9999913573265076,
        0.9999964237213135,
        0.999871015548706
      ],
      "min": [
        -0.9999707937240601,
        -0.9999557733535767,
        -0.9999783039093018
      ],
      "type": "VEC3"
    },
    {
      "bufferView": 3,
      "byteOffset": 6291200,
      "componentType": 5126,
      "count": 65534,
      "max": [
        0.7529411911964417,
        0.7529411911964417,
        0.7529411911964417,
        1.0
      ],
      "min": [
        0.7529411911964417,
        0.7529411911964417,
        0.7529411911964417,
        1.0
      ],
      "type": "VEC4"
    },
    {
      "bufferView": 1,
      "byteOffset": 3145600,
      "componentType": 5126,
      "count": 65534,
      "max": [
        0.9800009727478027,
        0.8581669926643372
      ],
      "min": [
        0.020354999229311943,
        0.09023000299930573
      ],
      "type": "VEC2"
    },
    {
      "bufferView": 0,
      "byteOffset": 3643680,
      "componentType": 5125,
      "count": 161430,
      "type": "SCALAR"
    },
    {
      "bufferView": 2,
      "byteOffset": 11009616,
      "componentType": 5126,
      "count": 65533,
      "max": [
        1.8683539628982544,
        -1.5335090160369873,
        7.927952766418457
      ],
      "min": [
        -0.048149000853300095,
        -6.695695877075195,
        1.6657459735870361
      ],
      "type": "VEC3"
    },
    {
      "bufferView": 2,
      "byteOffset": 11796012,
      "componentType": 5126,
      "count": 65533,
      "max": [
        0.9999558925628662,
        0.9997530579566956,
        0.9998766183853149
      ],
      "min": [
        -0.9999997615814209,
        -0.9999557733535767,
        -0.9998130798339844
      ],
      "type": "VEC3"
    },
    {
      "bufferView": 3,
      "byteOffset": 7339744,
      "componentType": 5126,
      "count": 65533,
      "max": [
        0.7529411911964417,
        0.7529411911964417,
        0.7529411911964417,
        1.0
      ],
      "min": [
        0.7529411911964417,
        0.7529411911964417,
        0.7529411911964417,
        1.0
      ],
      "type": "VEC4"
    },
    {
      "bufferView": 1,
      "byteOffset": 3669872,
      "componentType": 5126,
      "count": 65533,
      "max": [
        0.9039000272750854,
        0.83440101146698
      ],
      "min": [
        0.03456899896264076,
        0.11366499960422516
      ],
      "type": "VEC2"
    },
    {
      "bufferView": 0,
      "byteOffset": 4289400,
      "componentType": 5125,
      "count": 118140,
      "type": "SCALAR"
    },
    {
      "bufferView": 2,
      "byteOffset": 12582408,
      "componentType": 5126,
      "count": 45370,
      "max": [
        1.55165696144104,
        -1.5335090160369873,
        7.996898174285889
      ],
      "min": [
        -1.7180140018463135,
        -6.277071952819824,
        1.6657459735870361
      ],
      "type": "VEC3"
    },
    {
      "bufferView": 2,
      "byteOffset": 13126848,
      "componentType": 5126,
      "count": 45370,
      "max": [
        0.9999558925628662,
        0.9999781250953674,
        0.9998413920402527
      ],
      "min": [
        -0.9999611973762512,
        -0.9997952580451965,
        -0.999885618686676
      ],
      "type": "VEC3"
    },
    {
      "bufferView": 3,
      "byteOffset": 8388272,
      "componentType": 5126,
      "count": 45370,
      "max": [
        0.7529411911964417,
        0.7529411911964417,
        0.7529411911964417,
        1.0
      ],
      "min": [
        0.7529411911964417,
        0.7529411911964417,
        0.7529411911964417,
        1.0
      ],
      "type": "VEC4"
    },
    {
      "bufferView": 1,
      "byteOffset": 4194136,
      "componentType": 5126,
      "count": 45370,
      "max": [
        0.8792309761047363,
        0.8329799771308899
      ],
      "min": [
        0.03506400063633919,
        0.09271799772977829
      ],
      "type": "VEC2"
    },
    {
      "bufferView": 0,
      "byteOffset": 4761960,
      "componentType": 5125,
      "count": 69510,
      "type": "SCALAR"
    }
  ],
  "asset": {
    "extras": {
      "author": "seirogan (https://sketchfab.com/seirogan)",
      "license": "CC-BY-4.0 (http://creativecommons.org/licenses/by/4.0/)",
      "source": "https://sketchfab.com/3d-models/japanese-monkey-6805de96391f4ad7b1933c041d756d27",
      "title": "Japanese Monkey"
    },
    "generator": "Sketchfab-15.32.0",
    "version": "2.0"
  },
  "bufferViews": [
    {
      "buffer": 0,
      "byteLength": 5040000,
      "name": "floatBufferViews",
      "target": 34963
    },
    {
      "buffer": 0,
      "byteLength": 4557096,
      "byteOffset": 5040000,
      "byteStride": 8,
      "name": "floatBufferViews",
      "target": 34962
    },
    {
      "buffer": 0,
      "byteLength": 13671288,
      "byteOffset": 9597096,
      "byteStride": 12,
      "name": "floatBufferViews",
      "target": 34962
    },
    {
      "buffer": 0,
      "byteLength": 9114192,
      "byteOffset": 23268384,
      "byteStride": 16,
      "name": "floatBufferViews",
      "target": 34962
    }
  ],
  "buffers": [
    {
      "byteLength": 32382576,
      "uri": "scene.bin"
    }
  ],
  "extensionsRequired": [
    "KHR_materials_pbrSpecularGlossiness"
  ],
  "extensionsUsed": [
    "KHR_materials_pbrSpecularGlossiness"
  ],
  "images": [
    {
      "uri": "textures/material_0_diffuse.png"
    },
    {
      "uri": "textures/material_0_specularGlossiness.png"
    },
    {
      "uri": "textures/material_0_occlusion.png"
    }
  ],
  "materials": [
    {
      "alphaMode": "BLEND",
      "doubleSided": true,
      "extensions": {
        "KHR_materials_pbrSpecularGlossiness": {
          "diffuseFactor": [
            0.9590320121951219,
            0.9590320121951219,
            0.9590320121951219,
            0.39195884146341464
          ],
          "diffuseTexture": {
            "index": 0
          },
          "glossinessFactor": 0.0,
          "specularFactor": [
            0.7639100609756098,
            0.7639100609756098,
            0.7639100609756098
          ],
          "specularGlossinessTexture": {
            "index": 1
          }
        }
      },
      "name": "material_0",
      "occlusionTexture": {
        "index": 2,
        "strength": 0.3431783536585366
      }
    }
  ],
  "meshes": [
    {
      "name": "Object_0",
      "primitives": [
        {
          "attributes": {
            "COLOR_0": 2,
            "NORMAL": 1,
            "POSITION": 0,
            "TEXCOORD_0": 3
          },
          "indices": 4,
          "material": 0,
          "mode": 4
        }
      ]
    },
    {
      "name": "Object_1",
      "primitives": [
        {
          "attributes": {
            "COLOR_0": 7,
            "NORMAL": 6,
            "POSITION": 5,
            "TEXCOORD_0": 8
          },
          "indices": 9,
          "material": 0,
          "mode": 4
        }
      ]
    },
    {
      "name": "Object_2",
      "primitives": [
        {
          "attributes": {
            "COLOR_0": 12,
            "NORMAL": 11,
            "POSITION": 10,
            "TEXCOORD_0": 13
          },
          "indices": 14,
          "material": 0,
          "mode": 4
        }
      ]
    },
    {
      "name": "Object_3",
      "primitives": [
        {
          "attributes": {
            "COLOR_0": 17,
            "NORMAL": 16,
            "POSITION": 15,
            "TEXCOORD_0": 18
          },
          "indices": 19,
          "material": 0,
          "mode": 4
        }
      ]
    },
    {
      "name": "Object_4",
      "primitives": [
        {
          "attributes": {
            "COLOR_0": 22,
            "NORMAL": 21,
            "POSITION": 20,
            "TEXCOORD_0": 23
          },
          "indices": 24,
          "material": 0,
          "mode": 4
        }
      ]
    },
    {
      "name": "Object_5",
      "primitives": [
        {
          "attributes": {
            "COLOR_0": 27,
            "NORMAL": 26,
            "POSITION": 25,
            "TEXCOORD_0": 28
          },
          "indices": 29,
          "material": 0,
          "mode": 4
        }
      ]
    },
    {
      "name": "Object_6",
      "primitives": [
        {
          "attributes": {
            "COLOR_0": 32,
            "NORMAL": 31,
            "POSITION": 30,
            "TEXCOORD_0": 33
          },
          "indices": 34,
          "material": 0,
          "mode": 4
        }
      ]
    },
    {
      "name": "Object_7",
      "primitives": [
        {
          "attributes": {
            "COLOR_0": 37,
            "NORMAL": 36,
            "POSITION": 35,
            "TEXCOORD_0": 38
          },
          "indices": 39,
          "material": 0,
          "mode": 4
        }
      ]
    },
    {
      "name": "Object_8",
      "primitives": [
        {
          "attributes": {
            "COLOR_0": 42,
            "NORMAL": 41,
            "POSITION": 40,
            "TEXCOORD_0": 43
          },
          "indices": 44,
          "material": 0,
          "mode": 4
        }
      ]
    }
  ],
  "nodes": [
    {
      "children": [
        1
      ],
      "matrix": [
        0.9427564740180969,
        0.08460708707571023,
        0.32257065176963806,
        0.0,
        0.24858707189559937,
        0.466479539871216,
        -0.8488823771476744,
        0.0,
        -0.22229407727718353,
        0.8804762959480285,
        0.4187443852424624,
        0.0,
        0.0,
        0.0,
        0.0,
        1.0
      ],
      "name": "Sketchfab_model"
    },
    {
      "children": [
        2,
        3,
        4,
        5,
        6,
        7,
        8,
        9,
        10
      ],
      "name": "m101.obj.cleaner.materialmerger.gles"
    },
    {
      "mesh": 0,
      "name": "Object_2"
    },
    {
      "mesh": 1,
      "name": "Object_3"
    },
    {
      "mesh": 2,
      "name": "Object_4"
    },
    {
      "mesh": 3,
      "name": "Object_5"
    },
    {
      "mesh": 4,
      "name": "Object_6"
    },
    {
      "mesh": 5,
      "name": "Object_7"
    },
    {
      "mesh": 6,
      "name": "Object_8"
    },
    {
      "mesh": 7,
      "name": "Object_9"
    },
    {
      "mesh": 8,
      "name": "Object_10"
    }
  ],
  "samplers": [
    {
      "magFilter": 9729,
      "minFilter": 9987,
      "wrapS": 10497,
      "wrapT": 10497
    }
  ],
  "scene": 0,
  "scenes": [
    {
      "name": "Sketchfab_Scene",
      "nodes": [
        0
      ]
    }
  ],
  "textures": [
    {
      "sampler": 0,
      "source": 0
    },
    {
      "sampler": 0,
      "source": 1
    },
    {
      "sampler": 0,
      "source": 2
    }
  ]
}
