{
  "accessors": [
    {
      "bufferView": 2,
      "componentType": 5126,
      "count": 1989,
      "max": [
        4.274198532104492,
        2.4746029376983643,
        6.389560222625732
      ],
      "min": [
        -4.274198532104492,
        -1.525759220123291,
        -5.738912582397461
      ],
      "type": "VEC3"
    },
    {
      "bufferView": 2,
      "byteOffset": 23868,
      "componentType": 5126,
      "count": 1989,
      "max": [
        0.9924527406692505,
        0.9985523223876953,
        0.9997202157974243
      ],
      "min": [
        -0.9854288101196289,
        -0.9999135136604309,
        -0.9979658722877502
      ],
      "type": "VEC3"
    },
    {
      "bufferView": 1,
      "componentType": 5126,
      "count": 1989,
      "max": [
        0.75,
        0.875
      ],
      "min": [
        0.0,
        0.0
      ],
      "type": "VEC2"
    },
    {
      "bufferView": 0,
      "componentType": 5125,
      "count": 3096,
      "type": "SCALAR"
    },
    {
      "bufferView": 2,
      "byteOffset": 47736,
      "componentType": 5126,
      "count": 280,
      "max": [
        0.5725505948066711,
        1.293062686920166,
        -4.9574151039123535
      ],
      "min": [
        -0.5725505948066711,
        -1.1395235061645508,
        -6.359545707702637
      ],
      "type": "VEC3"
    },
    {
      "bufferView": 2,
      "byteOffset": 51096,
      "componentType": 5126,
      "count": 280,
      "max": [
        0.9825998544692993,
        0.5239104628562927,
        0.9598680138587952
      ],
      "min": [
        -0.9825998544692993,
        -0.7133755087852478,
        -0.8688992261886597
      ],
      "type": "VEC3"
    },
    {
      "bufferView": 1,
      "byteOffset": 15912,
      "componentType": 5126,
      "count": 280,
      "max": [
        0.625,
        0.5
      ],
      "min": [
        0.0,
        0.0
      ],
      "type": "VEC2"
    },
    {
      "bufferView": 0,
      "byteOffset": 12384,
      "componentType": 5125,
      "count": 432,
      "type": "SCALAR"
    },
    {
      "bufferView": 2,
      "byteOffset": 54456,
      "componentType": 5126,
      "count": 126,
      "max": [
        1.1217950582504272,
        1.851676106452942,
        -4.924219608306885
      ],
      "min": [
        -1.1587532758712769,
        1.6053828001022339,
        -5.227062702178955
      ],
      "type": "VEC3"
    },
    {
      "bufferView": 2,
      "byteOffset": 55968,
      "componentType": 5126,
      "count": 126,
      "max": [
        0.9878580570220947,
        0.9646798968315125,
        0.9816659092903137
      ],
      "min": [
        -0.9949294924736023,
        -0.9858362674713135,
        -0.8648662567138672
      ],
      "type": "VEC3"
    },
    {
      "bufferView": 1,
      "byteOffset": 18152,
      "componentType": 5126,
      "count": 126,
      "max": [
        0.5175333023071289,
        0.5
      ],
      "min": [
        0.46551206707954407,
        0.4999999701976776
      ],
      "type": "VEC2"
    },
    {
      "bufferView": 0,
      "byteOffset": 14112,
      "componentType": 5125,
      "count": 186,
      "type": "SCALAR"
    },
    {
      "bufferView": 2,
      "byteOffset": 57480,
      "componentType": 5126,
      "count": 64,
      "max": [
        1.124823808670044,
        1.9119999408721924,
        -4.863192558288574
      ],
      "min": [
        -1.145522117614746,
        1.5524909496307373,
        -5.293824195861816
      ],
      "type": "VEC3"
    },
    {
      "bufferView": 2,
      "byteOffset": 58248,
      "componentType": 5126,
      "count": 64,
      "max": [
        0.9868292212486267,
        -0.13997207581996918,
        0.06383045762777328
      ],
      "min": [
        -0.9862212538719177,
        -0.6049118638038635,
        -0.2591286301612854
      ],
      "type": "VEC3"
    },
    {
      "bufferView": 1,
      "byteOffset": 19160,
      "componentType": 5126,
      "count": 64,
      "max": [
        0.5303208827972412,
        0.5
      ],
      "min": [
        0.45175114274024963,
        0.4999999701976776
      ],
      "type": "VEC2"
    },
    {
      "bufferView": 0,
      "byteOffset": 14856,
      "componentType": 5125,
      "count": 96,
      "type": "SCALAR"
    },
    {
      "bufferView": 2,
      "byteOffset": 59016,
      "componentType": 5126,
      "count": 332,
      "max": [
        9.841032028198242,
        1.5308539867401123,
        6.41954231262207
      ],
      "min": [
        6.491708278656006,
        -1.4468610286712646,
        -2.6435320377349854
      ],
      "type": "VEC3"
    },
    {
      "bufferView": 2,
      "byteOffset": 63000,
      "componentType": 5126,
      "count": 332,
      "max": [
        0.9837782979011536,
        0.9897806644439697,
        0.5759718418121338
      ],
      "min": [
        -0.9841020703315735,
        -0.9953892827033997,
        -0.8144949674606323
      ],
      "type": "VEC3"
    },
    {
      "bufferView": 1,
      "byteOffset": 19672,
      "componentType": 5126,
      "count": 332,
      "max": [
        0.6875,
        0.75
      ],
      "min": [
        0.0,
        0.0
      ],
      "type": "VEC2"
    },
    {
      "bufferView": 0,
      "byteOffset": 15240,
      "componentType": 5125,
      "count": 498,
      "type": "SCALAR"
    },
    {
      "bufferView": 2,
      "byteOffset": 66984,
      "componentType": 5126,
      "count": 172,
      "max": [
        9.953160285949707,
        1.5308539867401123,
        2.214923620223999
      ],
      "min": [
        7.348836421966553,
        -1.4468610286712646,
        -2.6908469200134277
      ],
      "type": "VEC3"
    },
    {
      "bufferView": 2,
      "byteOffset": 69048,
      "componentType": 5126,
      "count": 172,
      "max": [
        0.9894357919692993,
        0.9928672313690186,
        0.9551917314529419
      ],
      "min": [
        -0.9894362092018127,
        -0.9751710891723633,
        -0.37582629919052124
      ],
      "type": "VEC3"
    },
    {
      "bufferView": 1,
      "byteOffset": 22328,
      "componentType": 5126,
      "count": 172,
      "max": [
        0.6875,
        0.75
      ],
      "min": [
        0.375,
        0.75
      ],
      "type": "VEC2"
    },
    {
      "bufferView": 0,
      "byteOffset": 17232,
      "componentType": 5125,
      "count": 258,
      "type": "SCALAR"
    },
    {
      "bufferView": 2,
      "byteOffset": 71112,
      "componentType": 5126,
      "count": 280,
      "max": [
        -6.491708278656006,
        1.5308539867401123,
        6.367455959320068
      ],
      "min": [
        -9.953160285949707,
        -1.4468610286712646,
        -2.6908469200134277
      ],
      "type": "VEC3"
    },
    {
      "bufferView": 2,
      "byteOffset": 74472,
      "componentType": 5126,
      "count": 280,
      "max": [
        0.9894362092018127,
        0.9928672313690186,
        0.9551919102668762
      ],
      "min": [
        -0.9894357919692993,
        -0.9751710891723633,
        -0.37582629919052124
      ],
      "type": "VEC3"
    },
    {
      "bufferView": 1,
      "byteOffset": 23704,
      "componentType": 5126,
      "count": 280,
      "max": [
        0.6875,
        0.75
      ],
      "min": [
        0.0,
        0.0
      ],
      "type": "VEC2"
    },
    {
      "bufferView": 0,
      "byteOffset": 18264,
      "componentType": 5125,
      "count": 420,
      "type": "SCALAR"
    },
    {
      "bufferView": 2,
      "byteOffset": 77832,
      "componentType": 5126,
      "count": 224,
      "max": [
        -6.491708278656006,
        1.5308539867401123,
        6.41954231262207
      ],
      "min": [
        -9.841032028198242,
        -1.4468610286712646,
        -0.6888673305511475
      ],
      "type": "VEC3"
    },
    {
      "bufferView": 2,
      "byteOffset": 80520,
      "componentType": 5126,
      "count": 224,
      "max": [
        0.984102189540863,
        0.9897805452346802,
        -0.02535032480955124
      ],
      "min": [
        -0.2973729372024536,
        -0.9953892230987549,
        -0.8144954442977905
      ],
      "type": "VEC3"
    },
    {
      "bufferView": 1,
      "byteOffset": 25944,
      "componentType": 5126,
      "count": 224,
      "max": [
        0.6875,
        0.75
      ],
      "min": [
        0.0,
        0.0
      ],
      "type": "VEC2"
    },
    {
      "bufferView": 0,
      "byteOffset": 19944,
      "componentType": 5125,
      "count": 336,
      "type": "SCALAR"
    },
    {
      "bufferView": 2,
      "byteOffset": 83208,
      "componentType": 5126,
      "count": 576,
      "max": [
        1.947465419769287,
        -1.7770631313323975,
        5.915647029876709
      ],
      "min": [
        0.22594353556632996,
        -6.216895580291748,
        2.068834066390991
      ],
      "type": "VEC3"
    },
    {
      "bufferView": 2,
      "byteOffset": 90120,
      "componentType": 5126,
      "count": 576,
      "max": [
        0.8972263932228088,
        0.9850061535835266,
        0.9759226441383362
      ],
      "min": [
        -0.9994489550590515,
        -0.9999109506607056,
        -0.8809693455696106
      ],
      "type": "VEC3"
    },
    {
      "bufferView": 1,
      "byteOffset": 27736,
      "componentType": 5126,
      "count": 576,
      "max": [
        0.36401158571243286,
        0.75
      ],
      "min": [
        0.26001691818237305,
        0.7499998807907104
      ],
      "type": "VEC2"
    },
    {
      "bufferView": 0,
      "byteOffset": 21288,
      "componentType": 5125,
      "count": 864,
      "type": "SCALAR"
    },
    {
      "bufferView": 2,
      "byteOffset": 97032,
      "componentType": 5126,
      "count": 576,
      "max": [
        -0.2259436845779419,
        -1.7770640850067139,
        4.323934555053711
      ],
      "min": [
        -1.9474653005599976,
        -6.127457141876221,
        2.0688347816467285
      ],
      "type": "VEC3"
    },
    {
      "bufferView": 2,
      "byteOffset": 103944,
      "componentType": 5126,
      "count": 576,
      "max": [
        0.9991044998168945,
        0.9923516511917114,
        0.9997187256813049
      ],
      "min": [
        -0.8796244859695435,
        -0.9998807311058044,
        -0.9966209530830383
      ],
      "type": "VEC3"
    },
    {
      "bufferView": 1,
      "byteOffset": 32344,
      "componentType": 5126,
      "count": 576,
      "max": [
        0.36401158571243286,
        0.75
      ],
      "min": [
        0.26001691818237305,
        0.7499998807907104
      ],
      "type": "VEC2"
    },
    {
      "bufferView": 0,
      "byteOffset": 24744,
      "componentType": 5125,
      "count": 864,
      "type": "SCALAR"
    }
  ],
  "asset": {
    "extras": {
      "author": "Thirrum (https://sketchfab.com/Thirrum)",
      "license": "CC-BY-4.0 (http://creativecommons.org/licenses/by/4.0/)",
      "source": "https://sketchfab.com/3d-models/stork-lowpoly-e449b573c2be4a498f063d22de3248d7",
      "title": "Stork-lowpoly"
    },
    "generator": "Sketchfab-14.25.0",
    "version": "2.0"
  },
  "bufferViews": [
    {
      "buffer": 0,
      "byteLength": 28200,
      "name": "floatBufferViews",
      "target": 34963
    },
    {
      "buffer": 0,
      "byteLength": 36952,
      "byteOffset": 28200,
      "byteStride": 8,
      "name": "floatBufferViews",
      "target": 34962
    },
    {
      "buffer": 0,
      "byteLength": 110856,
      "byteOffset": 65152,
      "byteStride": 12,
      "name": "floatBufferViews",
      "target": 34962
    }
  ],
  "buffers": [
    {
      "byteLength": 176008,
      "uri": "scene.bin"
    }
  ],
  "materials": [
    {
      "doubleSided": true,
      "name": "feather_wh",
      "pbrMetallicRoughness": {
        "baseColorFactor": [
          0.8,
          0.8,
          0.8,
          1.0
        ],
        "metallicFactor": 0.0,
        "roughnessFactor": 0.602447443276022
      }
    },
    {
      "doubleSided": true,
      "name": "dziub",
      "pbrMetallicRoughness": {
        "baseColorFactor": [
          0.7999999999999999,
          0.0187295,
          0.009291009999999995,
          1.0
        ],
        "metallicFactor": 0.0,
        "roughnessFactor": 0.6212837370468596
      }
    },
    {
      "doubleSided": true,
      "name": "eyes",
      "pbrMetallicRoughness": {
        "baseColorFactor": [
          0.00477585,
          0.00477585,
          0.00477585,
          1.0
        ],
        "metallicFactor": 0.0,
        "roughnessFactor": 0.11270380523424305
      }
    },
    {
      "doubleSided": true,
      "name": "feather_bl",
      "pbrMetallicRoughness": {
        "baseColorFactor": [
          0.0111342,
          0.0111342,
          0.0111342,
          1.0
        ],
        "metallicFactor": 0.0,
        "roughnessFactor": 0.6275625016371388
      }
    },
    {
      "doubleSided": true,
      "name": "legs",
      "pbrMetallicRoughness": {
        "baseColorFactor": [
          0.520473,
          0.04598160000000003,
          0.035913200000000006,
          1.0
        ],
        "metallicFactor": 0.0,
        "roughnessFactor": 0.6463987954079765
      }
    }
  ],
  "meshes": [
    {
      "name": "Object_0",
      "primitives": [
        {
          "attributes": {
            "NORMAL": 1,
            "POSITION": 0,
            "TEXCOORD_0": 2
          },
          "indices": 3,
          "material": 0,
          "mode": 4
        }
      ]
    },
    {
      "name": "Object_1",
      "primitives": [
        {
          "attributes": {
            "NORMAL": 5,
            "POSITION": 4,
            "TEXCOORD_0": 6
          },
          "indices": 7,
          "material": 1,
          "mode": 4
        }
      ]
    },
    {
      "name": "Object_2",
      "primitives": [
        {
          "attributes": {
            "NORMAL": 9,
            "POSITION": 8,
            "TEXCOORD_0": 10
          },
          "indices": 11,
          "material": 2,
          "mode": 4
        }
      ]
    },
    {
      "name": "Object_3",
      "primitives": [
        {
          "attributes": {
            "NORMAL": 13,
            "POSITION": 12,
            "TEXCOORD_0": 14
          },
          "indices": 15,
          "material": 3,
          "mode": 4
        }
      ]
    },
    {
      "name": "Object_4",
      "primitives": [
        {
          "attributes": {
            "NORMAL": 17,
            "POSITION": 16,
            "TEXCOORD_0": 18
          },
          "indices": 19,
          "material": 3,
          "mode": 4
        }
      ]
    },
    {
      "name": "Object_5",
      "primitives": [
        {
          "attributes": {
            "NORMAL": 21,
            "POSITION": 20,
            "TEXCOORD_0": 22
          },
          "indices": 23,
          "material": 0,
          "mode": 4
        }
      ]
    },
    {
      "name": "Object_6",
      "primitives": [
        {
          "attributes": {
            "NORMAL": 25,
            "POSITION": 24,
            "TEXCOORD_0": 26
          },
          "indices": 27,
          "material": 0,
          "mode": 4
        }
      ]
    },
    {
      "name": "Object_7",
      "primitives": [
        {
          "attributes": {
            "NORMAL": 29,
            "POSITION": 28,
            "TEXCOORD_0": 30
          },
          "indices": 31,
          "material": 3,
          "mode": 4
        }
      ]
    },
    {
      "name": "Object_8",
      "primitives": [
        {
          "attributes": {
            "NORMAL": 33,
            "POSITION": 32,
            "TEXCOORD_0": 34
          },
          "indices": 35,
          "material": 4,
          "mode": 4
        }
      ]
    },
    {
      "name": "Object_9",
      "primitives": [
        {
          "attributes": {
            "NORMAL": 37,
            "POSITION": 36,
            "TEXCOORD_0": 38
          },
          "indices": 39,
          "material": 4,
          "mode": 4
        }
      ]
    }
  ],
  "nodes": [
    {
      "children": [
        1
      ],
      "matrix": [
        1.0,
        0.0,
        0.0,
        0.0,
        0.0,
        2.220446049250313e-16,
        -1.0,
        0.0,
        0.0,
        1.0,
        2.220446049250313e-16,
        0.0,
        0.0,
        0.0,
        0.0,
        1.0
      ],
      "name": "Sketchfab_model"
    },
    {
      "children": [
        2
      ],
      "name": "root"
    },
    {
      "children": [
        3,
        8,
        11,
        14,
        16
      ],
      "matrix": [
        1.0,
        0.0,
        0.0,
        0.0,
        0.0,
        2.220446049250313e-16,
        1.0,
        0.0,
        0.0,
        -1.0,
        2.220446049250313e-16,
        0.0,
        0.0,
        0.0,
        0.0,
        1.0
      ],
      "name": "GLTF_SceneRootNode"
    },
    {
      "children": [
        4,
        5,
        6,
        7
      ],
      "matrix": [
        0.03787124529480934,
        0.0,
        0.0,
        0.0,
        0.0,
        0.08813672795342259,
        0.05731870988208454,
        0.0,
        0.0,
        -0.04044181826139892,
        0.06218579485440863,
        0.0,
        0.0,
        0.6125714778900146,
        0.005569368600845337,
        1.0
      ],
      "name": "Stork body_2"
    },
    {
      "mesh": 0,
      "name": "Object_4"
    },
    {
      "mesh": 1,
      "name": "Object_5"
    },
    {
      "mesh": 2,
      "name": "Object_6"
    },
    {
      "mesh": 3,
      "name": "Object_7"
    },
    {
      "children": [
        9,
        10
      ],
      "matrix": [
        0.03787124529480934,
        0.0,
        0.0,
        0.0,
        0.0,
        0.08813672795342259,
        0.05731870988208454,
        0.0,
        0.0,
        -0.04044181826139892,
        0.06218579485440863,
        0.0,
        -0.20267608761787415,
        0.617681086063385,
        0.005569368600845337,
        1.0
      ],
      "name": "Stork wing R_3"
    },
    {
      "mesh": 4,
      "name": "Object_9"
    },
    {
      "mesh": 5,
      "name": "Object_10"
    },
    {
      "children": [
        12,
        13
      ],
      "matrix": [
        0.03787124529480934,
        0.0,
        0.0,
        0.0,
        0.0,
        0.08813672795342259,
        0.05731870988208454,
        0.0,
        0.0,
        -0.04044181826139892,
        0.06218579485440863,
        0.0,
        0.20344430208206177,
        0.6169642806053162,
        0.005569368600845337,
        1.0
      ],
      "name": "Stork wing L_4"
    },
    {
      "mesh": 6,
      "name": "Object_12"
    },
    {
      "mesh": 7,
      "name": "Object_13"
    },
    {
      "children": [
        15
      ],
      "matrix": [
        0.03787124529480934,
        0.0,
        0.0,
        0.0,
        0.0,
        0.08813672795342259,
        0.05731870988208454,
        0.0,
        0.0,
        -0.04044181826139892,
        0.06218579485440863,
        0.0,
        0.0,
        0.7349522113800049,
        0.005569368600845337,
        1.0
      ],
      "name": "Stork leg R_5"
    },
    {
      "mesh": 8,
      "name": "Object_15"
    },
    {
      "children": [
        17
      ],
      "matrix": [
        0.03787124529480934,
        0.0,
        0.0,
        0.0,
        0.0,
        0.08813672795342259,
        0.05731870988208454,
        0.0,
        0.0,
        -0.04044181826139892,
        0.06218579485440863,
        0.0,
        0.0,
        0.7325714826583862,
        0.005569368600845337,
        1.0
      ],
      "name": "Stork leg L_6"
    },
    {
      "mesh": 9,
      "name": "Object_17"
    }
  ],
  "scene": 0,
  "scenes": [
    {
      "name": "Sketchfab_Scene",
      "nodes": [
        0
      ]
    }
  ]
}
