{
  "accessors": [
    {
      "bufferView": 2,
      "componentType": 5126,
      "count": 6823,
      "max": [
        3.4059696197509766,
        11.804306030273438,
        12.506368637084961
      ],
      "min": [
        -3.5523300170898438,
        -0.008954048156738281,
        -5.2603583335876465
      ],
      "type": "VEC3"
    },
    {
      "bufferView": 2,
      "byteOffset": 81876,
      "componentType": 5126,
      "count": 6823,
      "max": [
        0.9995931386947632,
        0.9999451637268066,
        0.9999843835830688
      ],
      "min": [
        -0.9999315142631531,
        -0.9999949336051941,
        -0.9996694326400757
      ],
      "type": "VEC3"
    },
    {
      "bufferView": 1,
      "componentType": 5126,
      "count": 6823,
      "max": [
        0.9877020120620728,
        0.9981459975242615
      ],
      "min": [
        0.010102000087499619,
        0.011937975883483887
      ],
      "type": "VEC2"
    },
    {
      "bufferView": 1,
      "byteOffset": 54584,
      "componentType": 5126,
      "count": 6823,
      "max": [
        0.9877020120620728,
        0.9981459975242615
      ],
      "min": [
        0.010102000087499619,
        0.011937975883483887
      ],
      "type": "VEC2"
    },
    {
      "bufferView": 1,
      "byteOffset": 109168,
      "componentType": 5126,
      "count": 6823,
      "max": [
        0.9877020120620728,
        0.9981459975242615
      ],
      "min": [
        0.010102000087499619,
        0.011937975883483887
      ],
      "type": "VEC2"
    },
    {
      "bufferView": 0,
      "componentType": 5125,
      "count": 36378,
      "type": "SCALAR"
    }
  ],
  "asset": {
    "extras": {
      "author": "neighbor (https://sketchfab.com/kylekip)",
      "license": "CC-BY-4.0 (http://creativecommons.org/licenses/by/4.0/)",
      "source": "https://sketchfab.com/3d-models/bear-d9b82655d8784ad59d657bb927097634",
      "title": "bear"
    },
    "generator": "Sketchfab-14.98.0",
    "version": "2.0"
  },
  "bufferViews": [
    {
      "buffer": 0,
      "byteLength": 145512,
      "name": "floatBufferViews",
      "target": 34963
    },
    {
      "buffer": 0,
      "byteLength": 163752,
      "byteOffset": 145512,
      "byteStride": 8,
      "name": "floatBufferViews",
      "target": 34962
    },
    {
      "buffer": 0,
      "byteLength": 163752,
      "byteOffset": 309264,
      "byteStride": 12,
      "name": "floatBufferViews",
      "target": 34962
    }
  ],
  "buffers": [
    {
      "byteLength": 473016,
      "uri": "scene.bin"
    }
  ],
  "extensionsRequired": [
    "KHR_materials_pbrSpecularGlossiness"
  ],
  "extensionsUsed": [
    "KHR_materials_pbrSpecularGlossiness"
  ],
  "images": [
    {
      "uri": "textures/material_diffuse.png"
    },
    {
      "uri": "textures/material_specularGlossiness.png"
    }
  ],
  "materials": [
    {
      "doubleSided": true,
      "extensions": {
        "KHR_materials_pbrSpecularGlossiness": {
          "diffuseFactor": [
            1.0,
            1.0,
            1.0,
            1.0
          ],
          "diffuseTexture": {
            "index": 0
          },
          "glossinessFactor": 1.0,
          "specularFactor": [
            1.0,
            1.0,
            1.0
          ],
          "specularGlossinessTexture": {
            "index": 1
          }
        }
      },
      "name": "material"
    }
  ],
  "meshes": [
    {
      "name": "Object_0",
      "primitives": [
        {
          "attributes": {
            "NORMAL": 1,
            "POSITION": 0,
            "TEXCOORD_0": 2,
            "TEXCOORD_1": 3,
            "TEXCOORD_2": 4
          },
          "indices": 5,
          "material": 0,
          "mode": 4
        }
      ]
    }
  ],
  "nodes": [
    {
      "children": [
        1
      ],
      "matrix": [
        1.0,
        0.0,
        0.0,
        0.0,
        0.0,
        2.220446049250313e-16,
        -1.0,
        0.0,
        0.0,
        1.0,
        2.220446049250313e-16,
        0.0,
        0.0,
        0.0,
        0.0,
        1.0
      ],
      "name": "Sketchfab_model"
    },
    {
      "children": [
        2
      ],
      "name": "root"
    },
    {
      "children": [
        3
      ],
      "matrix": [
        1.0,
        0.0,
        0.0,
        0.0,
        0.0,
        2.220446049250313e-16,
        1.0,
        0.0,
        0.0,
        -1.0,
        2.220446049250313e-16,
        0.0,
        0.0,
        0.0,
        0.0,
        1.0
      ],
      "name": "GLTF_SceneRootNode"
    },
    {
      "children": [
        4
      ],
      "name": "root_0"
    },
    {
      "children": [
        5
      ],
      "matrix": [
        0.043341122567653656,
        0.0,
        0.0,
        0.0,
        0.0,
        0.043341122567653656,
        0.0,
        0.0,
        0.0,
        0.0,
        0.043341122567653656,
        0.0,
        0.0031716697849333286,
        -0.2556118965148926,
        0.22798985242843628,
        1.0
      ],
      "name": "node_id142_1"
    },
    {
      "mesh": 0,
      "name": "Object_5"
    }
  ],
  "samplers": [
    {
      "magFilter": 9729,
      "minFilter": 9987,
      "wrapS": 10497,
      "wrapT": 10497
    }
  ],
  "scene": 0,
  "scenes": [
    {
      "name": "Sketchfab_Scene",
      "nodes": [
        0
      ]
    }
  ],
  "textures": [
    {
      "sampler": 0,
      "source": 0
    },
    {
      "sampler": 0,
      "source": 1
    }
  ]
}
